<svg width="300" height="300" viewBox="0 0 300 300" fill="none" xmlns="http://www.w3.org/2000/svg">
<g clip-path="url(#clip0_1023_5)">
<path d="M81.9434 214.48C68.5034 214.48 55.0634 211.36 41.6234 205.12C28.1834 198.72 15.2234 189.44 2.74344 177.28L4.90344 176.08C13.0634 181.04 21.6234 185.04 30.5834 188.08L32.0234 163.12C28.9834 164.88 26.5034 166.16 24.5834 166.96C22.6634 167.6 20.8234 167.92 19.0634 167.92C16.6634 167.92 14.1034 166.8 11.3834 164.56C8.82344 162.32 6.58344 159.6 4.66344 156.4C2.90344 153.2 2.02344 150.24 2.02344 147.52C2.02344 143.68 4.26344 139.84 8.74344 136C13.3834 132 21.3834 126.96 32.7434 120.88C32.4234 109.04 32.1034 100.08 31.7834 94C31.3034 86.16 30.5834 80.16 29.6234 76C28.8234 71.84 27.5434 68.64 25.7834 66.4C24.0234 64.16 21.4634 62 18.1034 59.92L19.5434 58.24C27.0634 61.76 32.9034 64.88 37.0634 67.6C41.2234 70.32 44.2634 73.12 46.1834 76C53.7034 65.44 61.2234 57.44 68.7434 52C76.4234 46.4 83.6234 43.6 90.3434 43.6C96.9034 43.6 102.663 46.4 107.623 52C112.583 57.44 116.103 64.8 118.183 74.08C118.823 76.64 119.143 79.2 119.143 81.76C119.143 86.4 117.463 90.16 114.103 93.04C110.743 95.76 104.903 98.4 96.5834 100.96C83.3034 104.96 66.9034 111.92 47.3834 121.84L47.1434 136.24C57.2234 132.56 67.7034 127.92 78.5834 122.32C88.8234 117.04 97.4634 113.2 104.503 110.8C111.703 108.4 118.103 107.2 123.703 107.2C133.623 107.2 141.703 110.8 147.943 118C154.183 125.2 157.303 134.64 157.303 146.32C157.303 158.48 153.863 169.76 146.983 180.16C140.103 190.56 130.903 198.88 119.383 205.12C107.863 211.36 95.3834 214.48 81.9434 214.48ZM12.8234 141.52C15.3834 141.84 17.4634 142 19.0634 142C23.5434 142 28.1034 141.44 32.7434 140.32V129.76C27.1434 132.8 20.5034 136.72 12.8234 141.52ZM47.3834 152.56C47.3834 162.96 47.7834 176.56 48.5834 193.36C55.1434 194.96 61.7834 195.76 68.5034 195.76C80.0234 195.76 90.9834 193.04 101.383 187.6C111.783 182.16 120.103 174.96 126.343 166C132.583 157.04 135.703 147.52 135.703 137.44C135.703 130.56 134.103 125.52 130.903 122.32C127.703 118.96 122.743 117.28 116.023 117.28C108.823 117.28 100.343 119.76 90.5834 124.72C80.9834 129.68 66.5834 138.96 47.3834 152.56ZM47.8634 112.96C64.3434 103.84 75.9434 95.76 82.6634 88.72C89.5434 81.68 92.9834 74.4 92.9834 66.88C92.9834 59.04 89.9434 55.12 83.8634 55.12C79.3834 55.12 74.1034 57.36 68.0234 61.84C61.9434 66.16 55.3834 72.56 48.3434 81.04C49.1434 83.44 49.3834 86.08 49.0634 88.96L47.8634 112.96Z" fill="#EC121B"/>
<path d="M181.381 207.82C176.394 207.82 171.994 208.993 168.181 211.34C164.514 213.687 162.314 216.62 161.581 220.14C161.141 222.34 160.334 224.027 159.161 225.2C157.987 226.52 156.594 227.18 154.981 227.18C152.341 227.18 150.067 225.64 148.161 222.56C146.254 219.48 145.301 216.107 145.301 212.44C145.301 210.24 145.814 208.407 146.841 206.94C148.014 205.473 150.067 204.007 153.001 202.54C167.227 180.98 180.867 161.913 193.921 145.34C206.974 128.767 220.394 113.44 234.181 99.36C241.221 92.32 246.281 86.6 249.361 82.2C252.587 77.6533 254.347 73.9133 254.641 70.98C239.241 77.58 227.287 83.6667 218.781 89.24C210.421 94.6667 202.427 101.56 194.801 109.92C190.841 114.32 187.761 117.253 185.561 118.72C183.507 120.187 181.527 120.92 179.621 120.92C175.807 120.92 171.921 119.16 167.961 115.64C164.147 112.12 160.994 108.013 158.501 103.32C156.007 98.48 154.761 94.52 154.761 91.44C156.667 93.3467 158.501 94.8133 160.261 95.84C162.167 96.72 164.294 97.16 166.641 97.16C169.574 97.16 173.167 96.5 177.421 95.18C181.821 93.86 187.467 91.66 194.361 88.58L244.961 66.58C253.027 63.06 258.307 61.3 260.801 61.3C263.001 61.3 265.347 62.4733 267.841 64.82C270.334 67.02 272.387 69.8067 274.001 73.18C275.614 76.5533 276.421 79.78 276.421 82.86C276.421 85.2067 275.614 87.26 274.001 89.02C272.387 90.6333 268.867 92.8333 263.441 95.62C244.814 105.153 227.727 118.5 212.181 135.66C196.781 152.673 183.727 172.693 173.021 195.72C177.274 194.693 181.894 194.18 186.881 194.18C193.627 194.18 200.227 195.5 206.681 198.14C213.281 200.633 221.934 205.327 232.641 212.22C241.294 217.793 248.481 221.753 254.201 224.1C260.067 226.593 265.201 227.84 269.601 227.84C274.147 227.84 278.547 226.593 282.801 224.1C287.201 221.607 292.114 217.573 297.541 212L298.641 213.1L283.461 235.1C277.741 243.46 273.194 249.033 269.821 251.82C266.594 254.607 263.147 256 259.481 256C255.374 256 251.194 254.607 246.941 251.82C242.834 249.18 237.701 244.56 231.541 237.96C222.154 228.133 213.207 220.653 204.701 215.52C196.194 210.387 188.421 207.82 181.381 207.82Z" fill="#EC121B"/>
</g>
<defs>
<clipPath id="clip0_1023_5">
<rect width="300" height="300" fill="white"/>
</clipPath>
</defs>
</svg>
