<svg width="1224" height="180" viewBox="0 0 1224 180" fill="none" xmlns="http://www.w3.org/2000/svg">
<path d="M66.9008 150.4C55.7008 150.4 44.5008 147.8 33.3008 142.6C22.1008 137.267 11.3008 129.533 0.900782 119.4L2.70078 118.4C9.50078 122.533 16.6341 125.867 24.1008 128.4L25.3008 107.6C22.7674 109.067 20.7008 110.133 19.1008 110.8C17.5008 111.333 15.9674 111.6 14.5008 111.6C12.5008 111.6 10.3674 110.667 8.10078 108.8C5.96745 106.933 4.10078 104.667 2.50078 102C1.03411 99.3333 0.300781 96.8667 0.300781 94.6C0.300781 91.4 2.16745 88.2 5.90078 85C9.76745 81.6667 16.4341 77.4667 25.9008 72.4C25.6341 62.5333 25.3675 55.0667 25.1008 50C24.7008 43.4667 24.1008 38.4667 23.3008 35C22.6341 31.5333 21.5674 28.8667 20.1008 27C18.6341 25.1333 16.5008 23.3333 13.7008 21.6L14.9008 20.2C21.1674 23.1333 26.0341 25.7333 29.5008 28C32.9675 30.2667 35.5008 32.6 37.1008 35C43.3675 26.2 49.6341 19.5333 55.9008 15C62.3008 10.3333 68.3008 7.99999 73.9008 7.99999C79.3675 7.99999 84.1675 10.3333 88.3008 15C92.4341 19.5333 95.3675 25.6667 97.1008 33.4C97.6341 35.5333 97.9008 37.6667 97.9008 39.8C97.9008 43.6667 96.5008 46.8 93.7008 49.2C90.9008 51.4667 86.0341 53.6667 79.1008 55.8C68.0341 59.1333 54.3675 64.9333 38.1008 73.2L37.9008 85.2C46.3008 82.1333 55.0341 78.2667 64.1008 73.6C72.6341 69.2 79.8341 66 85.7008 64C91.7008 62 97.0341 61 101.701 61C109.967 61 116.701 64 121.901 70C127.101 76 129.701 83.8667 129.701 93.6C129.701 103.733 126.834 113.133 121.101 121.8C115.367 130.467 107.701 137.4 98.1008 142.6C88.5008 147.8 78.1008 150.4 66.9008 150.4ZM9.30078 89.6C11.4341 89.8667 13.1674 90 14.5008 90C18.2341 90 22.0341 89.5333 25.9008 88.6V79.8C21.2341 82.3333 15.7008 85.6 9.30078 89.6ZM38.1008 98.8C38.1008 107.467 38.4341 118.8 39.1008 132.8C44.5675 134.133 50.1008 134.8 55.7008 134.8C65.3008 134.8 74.4341 132.533 83.1008 128C91.7675 123.467 98.7008 117.467 103.901 110C109.101 102.533 111.701 94.6 111.701 86.2C111.701 80.4667 110.367 76.2667 107.701 73.6C105.034 70.8 100.901 69.4 95.3008 69.4C89.3008 69.4 82.2341 71.4667 74.1008 75.6C66.1008 79.7333 54.1008 87.4667 38.1008 98.8ZM38.5008 65.8C52.2341 58.2 61.9008 51.4667 67.5008 45.6C73.2341 39.7333 76.1008 33.6667 76.1008 27.4C76.1008 20.8667 73.5675 17.6 68.5008 17.6C64.7675 17.6 60.3674 19.4667 55.3008 23.2C50.2341 26.8 44.7674 32.1333 38.9008 39.2C39.5675 41.2 39.7674 43.4 39.5008 45.8L38.5008 65.8ZM194.362 152C184.628 152 175.895 149.933 168.162 145.8C160.562 141.533 154.562 135.667 150.162 128.2C145.895 120.6 143.762 112 143.762 102.4C143.762 91.0667 146.495 80.5333 151.962 70.8C157.562 61.0667 164.628 54.3333 173.162 50.6L174.162 51.8C170.962 55.6667 168.295 61.6667 166.162 69.8C164.162 77.8 163.162 86.1333 163.162 94.8C163.162 104.8 164.495 113.8 167.162 121.8C169.962 129.667 173.828 135.867 178.762 140.4C183.695 144.8 189.228 147 195.362 147C200.695 147 205.428 145.4 209.562 142.2C213.695 139 216.895 134.533 219.162 128.8C221.562 123.067 222.762 116.6 222.762 109.4C222.762 97.1333 219.628 85.4 213.362 74.2C207.228 62.8667 199.295 54.6 189.562 49.4L190.162 48C200.295 49.2 209.295 52.4667 217.162 57.8C225.162 63.1333 231.428 69.8667 235.962 78C240.495 86.1333 242.762 95.0667 242.762 104.8C242.762 113.867 240.695 122 236.562 129.2C232.428 136.4 226.695 142 219.362 146C212.028 150 203.695 152 194.362 152ZM325.899 150.2C332.433 141.933 337.566 132.867 341.299 123C345.166 113 347.099 103.6 347.099 94.8C347.099 88.4 346.099 82.6667 344.099 77.6C342.099 72.4 339.299 68.3333 335.699 65.4C332.233 62.4667 328.299 61 323.899 61C318.033 61 312.899 63.8667 308.499 69.6C304.233 75.2 300.899 83.1333 298.499 93.4C296.099 103.533 294.899 115.133 294.899 128.2C294.899 134.467 294.499 139.133 293.699 142.2C292.899 145.267 291.566 147.4 289.699 148.6C287.833 149.667 285.033 150.2 281.299 150.2C275.833 150.2 272.099 149.067 270.099 146.8C268.233 144.533 267.299 140.133 267.299 133.6V93.8C267.299 82.8667 266.766 74.5333 265.699 68.8C264.633 63.0667 262.899 59.1333 260.499 57C258.233 54.7333 254.966 53.6 250.699 53.6C252.966 51.2 257.499 50 264.299 50C271.499 50 277.633 51.2667 282.699 53.8C287.766 56.3333 290.299 59.3333 290.299 62.8C290.299 64 289.699 66 288.499 68.8C285.433 76 282.766 84.8 280.499 95.2C278.233 105.6 276.099 119.133 274.099 135.8C277.433 133.267 280.433 129.067 283.099 123.2C285.899 117.2 288.833 108.467 291.899 97C295.233 84.6 298.433 75.0667 301.499 68.4C304.699 61.7333 308.233 57 312.099 54.2C316.099 51.4 321.033 50 326.899 50C334.633 50 341.499 51.9333 347.499 55.8C353.633 59.6667 358.433 65.0667 361.899 72C365.366 78.8 367.099 86.6 367.099 95.4C367.099 108.467 363.433 120.067 356.099 130.2C348.766 140.333 338.966 147.4 326.699 151.4L325.899 150.2ZM450.313 150.2C456.847 141.933 461.98 132.867 465.713 123C469.58 113 471.513 103.6 471.513 94.8C471.513 88.4 470.513 82.6667 468.513 77.6C466.513 72.4 463.713 68.3333 460.113 65.4C456.647 62.4667 452.713 61 448.313 61C442.447 61 437.313 63.8667 432.913 69.6C428.647 75.2 425.313 83.1333 422.913 93.4C420.513 103.533 419.313 115.133 419.313 128.2C419.313 134.467 418.913 139.133 418.113 142.2C417.313 145.267 415.98 147.4 414.113 148.6C412.247 149.667 409.447 150.2 405.713 150.2C400.247 150.2 396.513 149.067 394.513 146.8C392.647 144.533 391.713 140.133 391.713 133.6V93.8C391.713 82.8667 391.18 74.5333 390.113 68.8C389.047 63.0667 387.313 59.1333 384.913 57C382.647 54.7333 379.38 53.6 375.113 53.6C377.38 51.2 381.913 50 388.713 50C395.913 50 402.047 51.2667 407.113 53.8C412.18 56.3333 414.713 59.3333 414.713 62.8C414.713 64 414.113 66 412.913 68.8C409.847 76 407.18 84.8 404.913 95.2C402.647 105.6 400.513 119.133 398.513 135.8C401.847 133.267 404.847 129.067 407.513 123.2C410.313 117.2 413.247 108.467 416.313 97C419.647 84.6 422.847 75.0667 425.913 68.4C429.113 61.7333 432.647 57 436.513 54.2C440.513 51.4 445.447 50 451.313 50C459.047 50 465.913 51.9333 471.913 55.8C478.047 59.6667 482.847 65.0667 486.313 72C489.78 78.8 491.513 86.6 491.513 95.4C491.513 108.467 487.847 120.067 480.513 130.2C473.18 140.333 463.38 147.4 451.113 151.4L450.313 150.2ZM521.527 93.2C521.527 85.0667 520.794 79.0667 519.327 75.2C517.861 71.3333 515.861 68 513.327 65.2C511.994 63.3333 510.994 61.8667 510.327 60.8C509.794 59.7333 509.527 58.3333 509.527 56.6C509.527 54.4667 509.927 52.5333 510.727 50.8C511.527 49.0667 512.727 47.0667 514.327 44.8C516.194 42.1333 517.594 39.6667 518.527 37.4C519.594 35.1333 520.127 32.3333 520.127 29C520.127 26.2 519.794 23.4667 519.127 20.8L518.527 15.6C518.527 13.8667 518.927 12.5333 519.727 11.6C520.661 10.5333 521.861 9.99999 523.327 9.99999C525.461 9.99999 528.127 10.9333 531.327 12.8C534.527 14.5333 537.261 16.8 539.527 19.6C541.927 22.2667 543.127 24.9333 543.127 27.6C543.127 29.4667 542.461 31.0667 541.127 32.4C539.927 33.6 538.194 34.2 535.927 34.2C532.861 34.2 529.727 35.2667 526.527 37.4C523.327 39.4 520.594 41.9333 518.327 45C516.194 47.9333 515.127 50.7333 515.127 53.4C515.127 55 515.727 56.5333 516.927 58C518.261 59.3333 520.527 61 523.727 63C527.727 65.5333 530.594 67.8667 532.327 70C534.194 72 535.394 74.4667 535.927 77.4C536.594 80.3333 536.927 84.7333 536.927 90.6C536.927 92.4667 536.727 98.4 536.327 108.4C536.061 113.467 535.927 116.933 535.927 118.8C535.927 128.133 537.394 135.067 540.327 139.6C543.394 144.133 547.394 146.4 552.327 146.4C550.194 148.8 545.661 150 538.727 150C531.661 150 525.527 148.867 520.327 146.6C515.261 144.2 512.727 141.333 512.727 138C512.727 137.2 512.927 136.067 513.327 134.6C513.861 133.133 514.394 131.533 514.927 129.8C516.927 124.2 518.527 118.6 519.727 113C520.927 107.267 521.527 100.667 521.527 93.2ZM609.47 152C602.67 152 596.27 150.6 590.27 147.8C584.403 145 579.67 141.267 576.07 136.6C572.603 131.8 570.87 126.6 570.87 121C570.87 114.6 573.536 108.667 578.87 103.2C584.336 97.6 593.336 91.7333 605.87 85.6C613.736 81.7333 619.27 78.4 622.47 75.6C625.803 72.6667 627.47 69.6667 627.47 66.6C627.47 63.8 626.27 61.5333 623.87 59.8C621.603 58.0667 618.536 57.2 614.67 57.2C608.536 57.2 602.336 59.5333 596.07 64.2C589.936 68.8667 584.336 75.3333 579.27 83.6C574.336 91.8667 570.536 101.2 567.87 111.6H566.27C568.136 98.6667 571.603 87.4 576.67 77.8C581.736 68.2 588.07 60.8667 595.67 55.8C603.27 50.6 611.603 48 620.67 48C626.27 48 631.47 48.9333 636.27 50.8C641.203 52.6667 645.07 55.2667 647.87 58.6C650.67 61.8 652.07 65.2667 652.07 69C652.07 71.6667 651.136 74 649.27 76C647.536 77.8667 644.536 79.8 640.27 81.8C636.003 83.6667 629.803 85.8 621.67 88.2C611.67 91.2667 603.803 94.1333 598.07 96.8C592.336 99.3333 588.203 101.933 585.67 104.6C583.27 107.267 582.07 110.333 582.07 113.8C582.07 119.267 584.603 123.8 589.67 127.4C594.87 130.867 601.403 132.6 609.27 132.6C619.27 132.6 628.803 129.667 637.87 123.8C647.07 117.8 654.536 109.733 660.27 99.6L661.67 100.2C657.803 116.2 651.203 128.867 641.87 138.2C632.536 147.4 621.736 152 609.47 152ZM768.452 136.2C763.919 136.2 759.919 137.267 756.452 139.4C753.119 141.533 751.119 144.2 750.452 147.4C750.052 149.4 749.319 150.933 748.252 152C747.186 153.2 745.919 153.8 744.452 153.8C742.052 153.8 739.986 152.4 738.252 149.6C736.519 146.8 735.652 143.733 735.652 140.4C735.652 138.4 736.119 136.733 737.052 135.4C738.119 134.067 739.986 132.733 742.652 131.4C755.586 111.8 767.986 94.4667 779.852 79.4C791.719 64.3333 803.919 50.4 816.452 37.6C822.852 31.2 827.452 26 830.252 22C833.186 17.8667 834.786 14.4667 835.052 11.8C821.052 17.8 810.186 23.3333 802.452 28.4C794.852 33.3333 787.586 39.6 780.652 47.2C777.052 51.2 774.252 53.8667 772.252 55.2C770.386 56.5333 768.586 57.2 766.852 57.2C763.386 57.2 759.852 55.6 756.252 52.4C752.786 49.2 749.919 45.4667 747.652 41.2C745.386 36.8 744.252 33.2 744.252 30.4C745.986 32.1333 747.652 33.4667 749.252 34.4C750.986 35.2 752.919 35.6 755.052 35.6C757.719 35.6 760.986 35 764.852 33.8C768.852 32.6 773.986 30.6 780.252 27.8L826.252 7.79999C833.586 4.6 838.386 3 840.652 3C842.652 3 844.786 4.06666 847.052 6.19999C849.319 8.19999 851.186 10.7333 852.652 13.8C854.119 16.8667 854.852 19.8 854.852 22.6C854.852 24.7333 854.119 26.6 852.652 28.2C851.186 29.6667 847.986 31.6667 843.052 34.2C826.119 42.8667 810.586 55 796.452 70.6C782.452 86.0667 770.586 104.267 760.852 125.2C764.719 124.267 768.919 123.8 773.452 123.8C779.586 123.8 785.586 125 791.452 127.4C797.452 129.667 805.319 133.933 815.052 140.2C822.919 145.267 829.452 148.867 834.652 151C839.986 153.267 844.652 154.4 848.652 154.4C852.786 154.4 856.786 153.267 860.652 151C864.652 148.733 869.119 145.067 874.052 140L875.052 141L861.252 161C856.052 168.6 851.919 173.667 848.852 176.2C845.919 178.733 842.786 180 839.452 180C835.719 180 831.919 178.733 828.052 176.2C824.319 173.8 819.652 169.6 814.052 163.6C805.519 154.667 797.386 147.867 789.652 143.2C781.919 138.533 774.852 136.2 768.452 136.2ZM939.305 150C945.839 141.067 950.972 131.6 954.705 121.6C958.439 111.6 960.305 102.467 960.305 94.2C960.305 88.0667 959.239 82.5333 957.105 77.6C955.105 72.5333 952.239 68.6 948.505 65.8C944.905 62.8667 940.905 61.4 936.505 61.4C927.439 61.4 920.439 67.2667 915.505 79C910.705 90.6 908.305 106.8 908.305 127.6C908.305 134.267 907.905 139.133 907.105 142.2C906.439 145.267 905.172 147.333 903.305 148.4C901.572 149.467 898.705 150 894.705 150C890.839 150 887.905 149.533 885.905 148.6C884.039 147.667 882.705 146.067 881.905 143.8C881.239 141.4 880.905 137.733 880.905 132.8V36.6C880.905 28.3333 880.372 21.8667 879.305 17.2C878.372 12.4 876.772 8.99999 874.505 6.99999C872.239 4.86666 869.105 3.8 865.105 3.8C868.305 1.26666 873.105 -1.19209e-05 879.505 -1.19209e-05C886.439 -1.19209e-05 892.505 1.46666 897.705 4.39999C903.039 7.19999 905.705 10.6 905.705 14.6C905.705 16.0667 905.105 18.9333 903.905 23.2C900.839 34.2667 898.172 48.0667 895.905 64.6C893.772 81.1333 891.639 103.267 889.505 131C892.172 127.267 894.705 122.667 897.105 117.2C899.505 111.6 902.105 104.333 904.905 95.4C908.505 83.4 911.972 74.2 915.305 67.8C918.772 61.2667 922.439 56.6667 926.305 54C930.305 51.3333 935.239 50 941.105 50C948.705 50 955.439 51.9333 961.305 55.8C967.305 59.5333 971.972 64.7333 975.305 71.4C978.639 78.0667 980.305 85.6667 980.305 94.2C980.305 106.6 976.705 117.933 969.505 128.2C962.305 138.467 952.572 146.2 940.305 151.4L939.305 150ZM1044.95 152C1035.21 152 1026.48 149.933 1018.75 145.8C1011.15 141.533 1005.15 135.667 1000.75 128.2C996.481 120.6 994.348 112 994.348 102.4C994.348 91.0667 997.081 80.5333 1002.55 70.8C1008.15 61.0667 1015.21 54.3333 1023.75 50.6L1024.75 51.8C1021.55 55.6667 1018.88 61.6667 1016.75 69.8C1014.75 77.8 1013.75 86.1333 1013.75 94.8C1013.75 104.8 1015.08 113.8 1017.75 121.8C1020.55 129.667 1024.41 135.867 1029.35 140.4C1034.28 144.8 1039.81 147 1045.95 147C1051.28 147 1056.01 145.4 1060.15 142.2C1064.28 139 1067.48 134.533 1069.75 128.8C1072.15 123.067 1073.35 116.6 1073.35 109.4C1073.35 97.1333 1070.21 85.4 1063.95 74.2C1057.81 62.8667 1049.88 54.6 1040.15 49.4L1040.75 48C1050.88 49.2 1059.88 52.4667 1067.75 57.8C1075.75 63.1333 1082.01 69.8667 1086.55 78C1091.08 86.1333 1093.35 95.0667 1093.35 104.8C1093.35 113.867 1091.28 122 1087.15 129.2C1083.01 136.4 1077.28 142 1069.95 146C1062.61 150 1054.28 152 1044.95 152ZM1210.09 150C1202.89 150 1196.75 148.733 1191.69 146.2C1186.62 143.667 1184.09 140.667 1184.09 137.2C1184.09 136 1184.69 134 1185.89 131.2C1188.95 124 1191.62 115.2 1193.89 104.8C1196.15 94.4 1198.29 80.8667 1200.29 64.2C1196.95 66.7333 1193.89 71 1191.09 77C1188.42 82.8667 1185.55 91.5333 1182.49 103C1179.15 115.4 1175.89 124.933 1172.69 131.6C1169.62 138.267 1166.15 143 1162.29 145.8C1158.42 148.6 1153.55 150 1147.69 150C1139.95 150 1133.02 148 1126.89 144C1120.75 139.867 1115.95 134.2 1112.49 127C1109.02 119.667 1107.29 111.4 1107.29 102.2C1107.29 89.4 1110.55 78.2 1117.09 68.6C1123.62 59 1132.49 52.3333 1143.69 48.6L1144.49 49.8C1139.15 56.6 1134.95 64.7333 1131.89 74.2C1128.82 83.5333 1127.29 92.7333 1127.29 101.8C1127.29 109 1128.22 115.467 1130.09 121.2C1132.09 126.8 1134.82 131.2 1138.29 134.4C1141.75 137.467 1145.69 139 1150.09 139C1156.09 139 1161.29 136.2 1165.69 130.6C1170.09 125 1173.49 117.133 1175.89 107C1178.29 96.8667 1179.49 85.1333 1179.49 71.8C1179.49 65.2667 1179.82 60.5333 1180.49 57.6C1181.15 54.5333 1182.35 52.5333 1184.09 51.6C1185.95 50.5333 1188.75 50 1192.49 50C1196.62 50 1199.69 50.5333 1201.69 51.6C1203.69 52.5333 1205.09 54.2667 1205.89 56.8C1206.69 59.2 1207.09 62.9333 1207.09 68V106.2C1207.09 117.133 1207.62 125.467 1208.69 131.2C1209.75 136.933 1211.42 140.933 1213.69 143.2C1216.09 145.333 1219.42 146.4 1223.69 146.4C1221.55 148.8 1217.02 150 1210.09 150Z" fill="black"/>
</svg>
